<?xml version="1.0" encoding="utf-8"?>
<!-- Generator: Adobe Illustrator 19.0.0, SVG Export Plug-In . SVG Version: 6.00 Build 0)  -->
<svg version="1.1" id="Layer_1" xmlns="http://www.w3.org/2000/svg" xmlns:xlink="http://www.w3.org/1999/xlink" x="0px" y="0px"
	 viewBox="0 0 171.5 31.4" style="enable-background:new 0 0 171.5 31.4;" xml:space="preserve">
<style type="text/css">
	.st0{fill:#0055B8;}
	.st1{fill:#86A5DC;}
	.st2{fill:#5C6670;}
</style>
<g id="XMLID_1_">
	<path id="XMLID_2_" class="st0" d="M160.2,29.1c-0.4-0.4-1-1-1.4-1.4c-0.4-0.4-1-1-1.4-1.4l-0.9-0.9l-1.4-1.4c-0.4-0.4-1-1-1.4-1.4
		l-0.9-0.9c-0.4-0.4-1-1-1.4-1.4c-0.4-0.4-1-1-1.4-1.4L149,18c-0.4-0.4-1-1-1.4-1.4c-0.4-0.4-1-1-1.4-1.4l-0.9-0.9
		c-0.4-0.4-1-1-1.4-1.4c-0.4-0.4-1-1-1.4-1.4c-0.4-0.4-0.7-0.3-0.7,0.3v2.7c0,0.6,0.1,1.1,0.2,1.2c0.1,0.1,0.5,0.5,0.9,0.9l0.9,0.9
		c0.4,0.4,1,1,1.4,1.4c0.4,0.4,1,1,1.4,1.4l0.9,0.9c0.4,0.4,1,1,1.4,1.4c0.4,0.4,1,1,1.4,1.4l0.9,0.9c0.4,0.4,1,1,1.4,1.4
		c0.4,0.4,1,1,1.4,1.4l0.9,0.9c0.4,0.4,0.8,0.8,0.9,0.9c0.1,0.1,0.7,0.2,1.2,0.2h2.7C160.4,29.8,160.6,29.5,160.2,29.1"/>
	<path id="XMLID_3_" class="st0" d="M163.9,25.4c-0.4-0.4-1-1-1.4-1.4c-0.4-0.4-1-1-1.4-1.4l-0.9-0.9c-0.4-0.4-1-1-1.4-1.4
		c-0.4-0.4-1-1-1.4-1.4l-0.9-0.9c-0.4-0.4-1-1-1.4-1.4c-0.4-0.4-1-1-1.4-1.4l-0.9-0.9c-0.4-0.4-1-1-1.4-1.4c-0.4-0.4-1-1-1.4-1.4
		l-0.9-0.9c-0.4-0.4-1-1-1.4-1.4c-0.4-0.4-1-1-1.4-1.4l-3.7-3.7c-0.4-0.4-0.7-0.3-0.7,0.3v2.7c0,0.6,0.3,1.4,0.7,1.8l1.3,1.3
		c0.4,0.4,1,1,1.4,1.4c0.4,0.4,1,1,1.4,1.4l0.9,0.9c0.4,0.4,1,1,1.4,1.4l1.4,1.4l0.9,0.9c0.4,0.4,1,1,1.4,1.4c0.4,0.4,1,1,1.4,1.4
		l0.9,0.9c0.4,0.4,1,1,1.4,1.4c0.4,0.4,1,1,1.4,1.4l0.9,0.9c0.4,0.4,1,1,1.4,1.4c0.4,0.4,1,1,1.4,1.4l1.3,1.3
		c0.4,0.4,1.2,0.7,1.8,0.7h2.7c0.6,0,0.7-0.3,0.3-0.7L163.9,25.4z"/>
	<path id="XMLID_4_" class="st0" d="M141.8,28.8c0,0.6,0.5,1.1,1.1,1.1h2.1c0.6,0,0.7-0.3,0.3-0.7l-1.4-1.4c-0.4-0.4-1-1-1.4-1.4
		c-0.4-0.4-0.7-0.3-0.7,0.3V28.8z"/>
	<path id="XMLID_5_" class="st1" d="M162.4,21.3c0.4,0.4,1.1,0.4,1.5,0l5-5c0.4-0.4,0.7-1.2,0.7-1.8v-2.7c0-0.6-0.3-0.7-0.7-0.3
		l-7.4,7.4c-0.4,0.4-0.4,1.1,0,1.5L162.4,21.3z"/>
	<path id="XMLID_6_" class="st0" d="M141.8,21.9c0,0.6,0.1,1.1,0.2,1.2c0.1,0.1,0.5,0.5,0.9,0.9l0.9,0.9c0.4,0.4,1,1,1.4,1.4
		c0.4,0.4,1,1,1.4,1.4l0.9,0.9c0.4,0.4,0.8,0.8,0.9,0.9c0.1,0.1,0.7,0.2,1.2,0.2h2.7c0.6,0,0.7-0.3,0.3-0.7c-0.4-0.4-1-1-1.4-1.4
		c-0.4-0.4-1-1-1.4-1.4l-0.9-0.9c-0.4-0.4-1-1-1.4-1.4c-0.4-0.4-1-1-1.4-1.4l-0.9-0.9c-0.4-0.4-1-1-1.4-1.4c-0.4-0.4-1-1-1.4-1.4
		c-0.4-0.4-0.7-0.3-0.7,0.3V21.9z"/>
	<path id="XMLID_7_" class="st1" d="M165.2,22.6c-0.4,0.4-0.4,1.1,0,1.5l3.7,3.7c0.4,0.4,0.7,0.3,0.7-0.3v-8.3
		c0-0.6-0.3-0.7-0.7-0.3L165.2,22.6z"/>
	<path id="XMLID_8_" class="st1" d="M158.7,17.6c0.4,0.4,1.1,0.4,1.5,0l8.7-8.7c0.4-0.4,0.7-1.2,0.7-1.8V4.4c0-0.6-0.3-0.7-0.7-0.3
		l-11.1,11.1c-0.4,0.4-0.4,1.1,0,1.5L158.7,17.6z"/>
	<path id="XMLID_9_" class="st1" d="M151.3,10.1c0.4,0.4,1.1,0.4,1.5,0l7.4-7.4c0.4-0.4,0.3-0.7-0.3-0.7h-2.7
		c-0.6,0-1.4,0.3-1.8,0.7l-5,5c-0.4,0.4-0.4,1.1,0,1.5L151.3,10.1z"/>
	<path id="XMLID_10_" class="st1" d="M147.6,6.4c0.4,0.4,1.1,0.4,1.5,0l3.7-3.7c0.4-0.4,0.3-0.7-0.3-0.7h-8.3
		c-0.6,0-0.7,0.3-0.3,0.7L147.6,6.4z"/>
	<path id="XMLID_11_" class="st1" d="M155,13.9c0.4,0.4,1.1,0.4,1.5,0l11.1-11.1c0.4-0.4,0.3-0.7-0.3-0.7h-2.7
		c-0.6,0-1.4,0.3-1.8,0.7l-8.7,8.7c-0.4,0.4-0.4,1.1,0,1.5L155,13.9z"/>
	<path id="XMLID_12_" class="st2" d="M46.7,12.7l0.1,0.8h-0.6c-1.3,0-2.2-0.7-2.3-2h-3.5c-0.2,0-1.2,0.1-1.2,1.7v0
		c0,1.7,0.6,2.6,2.2,2.6c0.8,0,1.7-0.1,2.3-0.2l0.8,0.6c-0.9,0.2-2.1,0.4-3.1,0.4c-2,0-2.9-1.1-2.9-3.2v-0.1c0-2.1,1.3-2.5,1.7-2.5
		h3.5c-0.4-1.6-1.4-3-2.8-3h0c-0.6,0-1.3,0.1-1.8,0.4l0.4-0.9c0.5-0.2,1-0.3,1.5-0.3c1.9,0,3.3,1.7,3.6,4.3c0.2,1.5,1.4,1.4,1.6,1.4
		H46.7z M42.1,12.7h-0.7v1.5h0.7V12.7z"/>
	<path id="XMLID_15_" class="st2" d="M46.6,12.7h2.1c-0.4-0.5-0.7-1.1-0.7-2.1c0-1.9,1.1-2.8,2.5-2.8c1.7,0,2.4,1.2,2.4,2.8
		c0,2-0.8,2.8-2.4,2.8h-3.8L46.6,12.7z M52.2,10.6c0-1.4-0.7-2.1-1.7-2.1c-1,0-1.7,0.7-1.7,2.1c0,1.4,0.7,2,1.6,2h0.1
		C51.7,12.7,52.2,12.1,52.2,10.6"/>
	<polygon id="XMLID_18_" class="st2" points="54.6,13.4 54.6,3.8 55.3,3.7 55.3,13.4 	"/>
	<path id="XMLID_19_" class="st2" d="M65.9,13.4c-0.7,0-1.5-0.2-2.3-0.7c-0.4,0.5-0.9,0.7-1.5,0.7H62c-0.6,0-1.3-0.1-1.9-0.5v0.3
		c0,2.2-0.9,3.2-2.9,3.2h-0.2l-0.3-0.7c0.2,0,0.3,0,0.5,0c1.6,0,2.3-0.9,2.3-2.6V7l0.7-0.1v5.2c0.7,0.4,1.3,0.6,1.9,0.6H62
		c1.1,0,1.5-0.8,1.5-2.2V7l0.7-0.1v3.9c0,0.6-0.1,1-0.2,1.4c0.6,0.4,1.3,0.6,1.8,0.6h0.1L65.9,13.4L65.9,13.4z M63.5,15.1h0.7v1.5
		h-0.7V15.1z"/>
	<path id="XMLID_22_" class="st2" d="M65.8,12.7c1.1,0,1.5-0.7,1.5-2.2V3.8l0.7-0.1v7c0,1.8-0.7,2.7-2.2,2.7L65.8,12.7z"/>
	<polygon id="XMLID_23_" class="st2" points="69.9,13.4 69.9,3.8 70.7,3.7 70.7,13.4 	"/>
	<path id="XMLID_24_" class="st2" d="M75.6,15.8c0.2,0,0.3,0,0.5,0c1.6,0,2.3-0.9,2.3-2.6c-0.4,0.1-0.7,0.2-1.1,0.2
		c-1.3,0-2.3-0.9-2.3-2.8c0-1.9,1.1-2.8,2.4-2.8C78,7.9,78.4,8,79,8.2v5.1c0,2.1-0.9,3.2-2.9,3.2h-0.2L75.6,15.8z M78.3,8.8
		c-0.4-0.1-0.6-0.2-1-0.2c-0.8,0-1.7,0.6-1.7,2c0,1.5,0.8,2,1.6,2c0.4,0,0.7-0.1,1.1-0.3V8.8z"/>
	<path id="XMLID_27_" class="st2" d="M83.9,15.1l-0.2,1.4h-0.5L83,12.7h1.1c-0.4-0.5-0.7-1.1-0.7-2.1c0-1.9,1.1-2.8,2.5-2.8
		c1.7,0,2.5,1.2,2.5,2.8c0,0.6-0.1,1.1-0.3,1.6c0.6,0.4,1.2,0.5,1.8,0.5H90l0.1,0.8h-0.1c-0.7,0-1.5-0.2-2.3-0.7
		c-0.4,0.4-1,0.7-1.8,0.7h-2.1L83.9,15.1z M87.6,10.6c0-1.4-0.7-2.1-1.7-2.1c-1,0-1.7,0.7-1.7,2.1c0,1.4,0.7,2,1.6,2h0.1
		C87.1,12.7,87.6,12.1,87.6,10.6"/>
	<path id="XMLID_30_" class="st2" d="M91.3,12.7V4.4L92,4.2v6.5c1.5-3.2,3.7-4,4.6-4c1.5,0,2.7,1.1,2.7,3.4c0,1.2-0.3,2.1-0.8,2.6
		h2.1l0.1,0.8H89.9l-0.1-0.8H91.3z M91.8,12.7h4.6c1.4,0,1.9-1,1.9-2.6c0-1.8-0.7-2.6-1.9-2.6C95.4,7.4,93,9.2,91.8,12.7 M96,3.8
		h0.7v1.5H96V3.8z"/>
	<path id="XMLID_34_" class="st2" d="M104.4,13.4c-0.7,0-1.5-0.2-2.3-0.7c-0.4,0.5-1,0.7-1.6,0.7h0l-0.1-0.8h0
		c1.1,0,1.5-0.7,1.5-2.2V7l0.7-0.1v3.9c0,0.6-0.1,1-0.2,1.4c0.6,0.4,1.3,0.6,1.8,0.6h0.1V13.4L104.4,13.4z M102,3.8h0.7v1.5H102V3.8
		z"/>
	<path id="XMLID_37_" class="st2" d="M104.4,12.7c1.1,0,1.5-0.7,1.5-2.2V3.8l0.7-0.1v7c0,1.8-0.7,2.7-2.2,2.7L104.4,12.7z"/>
	<polygon id="XMLID_38_" class="st2" points="108.4,13.4 108.4,3.8 109.2,3.7 109.2,13.4 	"/>
	<path id="XMLID_39_" class="st2" d="M114.4,15.1l-0.2,1.4h-0.5l-0.2-3.9h1.1c-0.4-0.5-0.7-1.1-0.7-2.1c0-1.9,1.1-2.8,2.5-2.8
		c1.7,0,2.5,1.2,2.5,2.8c0,0.6-0.1,1.1-0.3,1.6c0.6,0.4,1.2,0.5,1.8,0.5h0.1c1.1,0,1.5-0.8,1.5-2.2V3.8l0.7-0.1v7
		c0,1.8-0.7,2.7-2.2,2.7h0c-0.7,0-1.5-0.2-2.3-0.7c-0.4,0.4-1,0.7-1.8,0.7h-2.1L114.4,15.1z M118.1,10.6c0-1.4-0.7-2.1-1.7-2.1
		c-1,0-1.7,0.7-1.7,2.1c0,1.4,0.7,2,1.6,2h0.1C117.6,12.7,118.1,12.1,118.1,10.6"/>
	<path id="XMLID_42_" class="st2" d="M125.8,13.4c-0.6,0-1.4-0.2-1.4-1.9V3.8l0.7-0.1v7.7c0,1.1,0.4,1.2,0.8,1.2h1.2l0.1,0.8H125.8z
		"/>
	<path id="XMLID_43_" class="st2" d="M127.1,12.7h1.7c-0.5-0.5-0.8-1.4-0.8-2.6c0-2.3,1.2-3.4,2.7-3.4c0.8,0,1.6,0.3,2.1,1.3
		l-0.5,0.5c-0.4-0.8-0.9-1-1.6-1c-1.2,0-1.9,0.8-1.9,2.6c0,1.7,0.6,2.6,2,2.6h2.2l0.1,0.8h-5.8L127.1,12.7z"/>
	<polygon id="XMLID_44_" class="st2" points="13.2,18.5 10.8,25.9 10,25.9 8,19.9 6,25.9 5.2,25.9 2.8,18.5 3.7,18.5 5.6,24.7 
		7.6,18.5 8.4,18.5 10.4,24.7 12.4,18.5 	"/>
	<path id="XMLID_45_" class="st2" d="M18.4,23.1c0,2.4-1.4,2.9-2.6,2.9c-1.2,0-2.6-0.5-2.6-2.9c0-2.4,1.4-2.9,2.6-2.9
		C17,20.3,18.4,20.8,18.4,23.1 M17.6,23.1c0-1.5-0.6-2.1-1.8-2.1c-1.3,0-1.8,0.6-1.8,2.1c0,1.5,0.6,2.1,1.8,2.1
		C17.1,25.3,17.6,24.6,17.6,23.1"/>
	<path id="XMLID_48_" class="st2" d="M20.1,21.3v4.6h-0.8v-5.1c0.3-0.1,1.4-0.5,2.7-0.5V21C21.3,21.1,20.6,21.2,20.1,21.3"/>
	<rect id="XMLID_49_" x="22.8" y="18.2" class="st2" width="0.8" height="7.7"/>
	<path id="XMLID_50_" class="st2" d="M27.3,20.3c0.5,0,0.9,0.1,1.4,0.2v-2.2h0.8v6c0,0.4-0.2,1.7-2.3,1.7c-0.9,0-2.5-0.4-2.5-2.9
		C24.7,20.8,26.1,20.3,27.3,20.3 M27.2,25.3c1,0,1.5-0.3,1.5-1v-3c-0.4-0.2-0.9-0.3-1.4-0.3c-1.2,0-1.8,0.6-1.8,2.1
		C25.5,25.1,26.5,25.3,27.2,25.3"/>
	<path id="XMLID_53_" class="st2" d="M39.1,23.1c0,2.4-1.4,2.9-2.7,2.9s-2.6-0.5-2.6-2.9c0-2.4,1.4-2.9,2.6-2.9S39.1,20.8,39.1,23.1
		 M38.3,23.1c0-1.5-0.6-2.1-1.8-2.1c-1.3,0-1.8,0.6-1.8,2.1c0,1.5,0.6,2.1,1.8,2.1C37.7,25.3,38.3,24.6,38.3,23.1"/>
	<path id="XMLID_56_" class="st2" d="M41.1,20.1v0.3h1.5v0.7h-1.5v4.8h-0.8v-4.8h-1v-0.7h1v-0.3c0-2,1.4-2,1.8-2
		c0.2,0,0.4,0,0.5,0.1v0.7c-0.1,0-0.2,0-0.4,0C41.7,18.8,41.1,18.8,41.1,20.1"/>
	<path id="XMLID_57_" class="st2" d="M51.2,24c0,1.2-1,2-2.7,2c-1,0-1.7-0.2-2.2-0.5v-0.9c0.4,0.3,1.1,0.6,2.2,0.6
		c0.9,0,1.9-0.2,1.9-1.2c0-2.2-4.1-1.1-4.1-3.6c0-1,0.7-2.1,2.6-2.1c0.8,0,1.4,0.2,1.9,0.4v0.8c-0.4-0.2-1-0.5-1.8-0.5
		c-1.2,0-1.9,0.4-1.9,1.3C47,22.1,51.2,21.2,51.2,24"/>
	<path id="XMLID_58_" class="st2" d="M56.3,20.4L54,26.5c-0.5,1.3-1.2,1.6-1.8,1.6c-0.2,0-0.4-0.1-0.5-0.1v-0.7
		c0.1,0,0.3,0.1,0.5,0.1c0.8,0,1.2-1.5,1.2-1.5l-2.1-5.5h0.9l1.6,4.4l1.6-4.4H56.3z"/>
	<path id="XMLID_59_" class="st2" d="M60.5,24.5c0,1-0.8,1.5-2.1,1.5c-0.7,0-1.3-0.2-1.7-0.4v-0.8c0.5,0.3,1.1,0.5,1.7,0.5
		c0.6,0,1.3-0.1,1.3-0.8c0-1.5-3-0.6-3-2.6c0-0.8,0.5-1.6,2-1.6c0.6,0,1.1,0.2,1.4,0.3v0.8c-0.3-0.2-0.8-0.4-1.4-0.4
		c-0.6,0-1.3,0.1-1.3,0.8C57.5,23,60.5,22.3,60.5,24.5"/>
	<path id="XMLID_60_" class="st2" d="M62.6,24.5c0,0.6,0.2,0.8,0.8,0.8c0.3,0,0.5-0.1,0.6-0.1v0.8C63.8,26,63.6,26,63.3,26
		c-0.5,0-1.5-0.1-1.5-1.6v-3.3h-1v-0.7h1v-1.6h0.8v1.6H64v0.7h-1.5V24.5z"/>
	<path id="XMLID_61_" class="st2" d="M69.5,23.2c0,0.2,0,0.4,0,0.4h-4.1c0.1,1.1,0.7,1.6,1.8,1.6c0.8,0,1.5-0.1,1.9-0.4v0.8
		c-0.5,0.3-1.2,0.4-2,0.4c-1.2,0-2.6-0.5-2.6-2.8c0-0.6-0.1-3,2.5-3C69.6,20.3,69.5,23,69.5,23.2 M68.7,22.9c0-0.3-0.1-1.9-1.6-1.9
		c-1.1,0-1.6,0.5-1.6,1.9H68.7z"/>
	<path id="XMLID_64_" class="st2" d="M78.4,22.3v3.6h-0.8v-3.6c0-0.5-0.1-1.2-1.4-1.2c-0.6,0-1.2,0.2-1.6,0.3c0.1,0.3,0.2,0.6,0.2,1
		v3.6H74v-3.6c0-0.5-0.1-1.2-1.4-1.2c-0.5,0-1,0.1-1.3,0.2v4.7h-0.8v-5.1c0.3-0.1,1.2-0.5,2.3-0.5c0.6,0,1.1,0.2,1.5,0.5
		c0.4-0.2,1.2-0.5,2.1-0.5C77.6,20.3,78.4,21,78.4,22.3"/>
	<path id="XMLID_65_" class="st2" d="M89.2,25.9h-1.1l-0.7-0.8c-0.5,0.5-1.2,0.9-2.1,0.9c-1.7,0-2.4-1.3-2.4-2.1
		c0-0.7,0.2-1.5,1.5-2.2c-0.3-0.4-0.7-1-0.7-1.5c0-0.9,0.8-1.7,1.7-1.7c1,0,1.7,0.7,1.7,1.6c0,0.8-0.4,1.3-1.4,1.8l1.6,1.9
		c0.2-0.4,0.4-0.9,0.5-1.1h0.7c-0.1,0.5-0.3,1.1-0.7,1.8L89.2,25.9z M86.9,24.5l-2-2.3c-1.2,0.6-1.2,1.3-1.2,1.6
		c0,0.4,0.3,1.4,1.6,1.4C86,25.2,86.6,24.9,86.9,24.5 M84.5,20.1c0,0.3,0.4,0.8,0.7,1.2c1-0.5,1.2-0.8,1.2-1.2
		c0-0.5-0.4-0.8-0.9-0.8C84.9,19.2,84.5,19.6,84.5,20.1"/>
	<path id="XMLID_69_" class="st2" d="M98.1,24c0,1.2-1,2-2.7,2c-1,0-1.7-0.2-2.2-0.5v-0.9c0.4,0.3,1.1,0.6,2.2,0.6
		c0.9,0,1.9-0.2,1.9-1.2c0-2.2-4.1-1.1-4.1-3.6c0-1,0.7-2.1,2.6-2.1c0.8,0,1.4,0.2,1.9,0.4v0.8c-0.4-0.2-1-0.5-1.8-0.5
		c-1.2,0-1.9,0.4-1.9,1.3C94,22.1,98.1,21.2,98.1,24"/>
	<path id="XMLID_70_" class="st2" d="M104.2,23.1c0,2.4-1.4,2.9-2.6,2.9c-1.2,0-2.6-0.5-2.6-2.9c0-2.4,1.4-2.9,2.6-2.9
		C102.7,20.3,104.2,20.8,104.2,23.1 M103.3,23.1c0-1.5-0.6-2.1-1.8-2.1c-1.3,0-1.8,0.6-1.8,2.1c0,1.5,0.6,2.1,1.8,2.1
		C102.8,25.3,103.3,24.6,103.3,23.1"/>
	<path id="XMLID_73_" class="st2" d="M106.2,20.1v0.3h1.5v0.7h-1.5v4.8h-0.8v-4.8h-1v-0.7h1v-0.3c0-2,1.4-2,1.8-2
		c0.2,0,0.4,0,0.5,0.1v0.7c-0.1,0-0.2,0-0.4,0C106.8,18.8,106.2,18.8,106.2,20.1"/>
	<path id="XMLID_74_" class="st2" d="M109.7,24.5c0,0.6,0.2,0.8,0.8,0.8c0.3,0,0.5-0.1,0.6-0.1v0.8c-0.2,0.1-0.5,0.1-0.7,0.1
		c-0.5,0-1.5-0.1-1.5-1.6v-3.3h-1v-0.7h1v-1.6h0.8v1.6h1.5v0.7h-1.5V24.5z"/>
	<polygon id="XMLID_75_" class="st2" points="119.4,20.4 117.6,25.9 116.7,25.9 115.4,21.8 114.2,25.9 113.3,25.9 111.5,20.4 
		112.3,20.4 113.8,24.7 115.1,20.4 115.8,20.4 117.1,24.7 118.6,20.4 	"/>
	<path id="XMLID_76_" class="st2" d="M124.4,22.6v1.7c0,1.5-1.6,1.8-2.3,1.8c-0.7,0-2.4-0.2-2.4-1.8c0-1.8,2.4-1.8,2.9-1.8
		c0.5,0,0.9,0.1,0.9,0.1c0-1-0.6-1.4-1.6-1.4c-0.8,0-1.4,0.2-1.6,0.3v-0.8c0.4-0.1,1-0.3,1.7-0.3C123.6,20.3,124.4,21.1,124.4,22.6
		 M123.6,23.2c0,0-0.4-0.1-1-0.1c-0.7,0-2,0.1-2,1.1c0,0.9,0.8,1,1.5,1c0.7,0,1.5-0.2,1.5-1V23.2z"/>
	<path id="XMLID_79_" class="st2" d="M126.3,21.3v4.6h-0.8v-5.1c0.3-0.1,1.4-0.5,2.7-0.5V21C127.4,21.1,126.7,21.2,126.3,21.3"/>
	<path id="XMLID_80_" class="st2" d="M133.5,23.2c0,0.2,0,0.4,0,0.4h-4.1c0.1,1.1,0.7,1.6,1.8,1.6c0.8,0,1.5-0.1,1.9-0.4v0.8
		c-0.5,0.3-1.2,0.4-2,0.4c-1.2,0-2.6-0.5-2.6-2.8c0-0.6-0.1-3,2.5-3C133.6,20.3,133.5,23,133.5,23.2 M132.6,22.9
		c0-0.3-0.1-1.9-1.6-1.9c-1.1,0-1.6,0.5-1.6,1.9H132.6z"/>
</g>
</svg>
