<svg xmlns="http://www.w3.org/2000/svg" viewBox="0 0 211.45 45.48"><defs><style>.cls-1{fill:#1d1d1b;}</style></defs><g id="Layer_2" data-name="Layer 2"><g id="Layer_1-2" data-name="Layer 1"><polygon class="cls-1" points="198.56 35.52 198.56 43.28 184.81 29.52 188.68 25.64 198.56 35.52"/><path class="cls-1" d="M199.66,34.8,189.13,24.27a.63.63,0,0,0-.91,0L177.69,34.8a.63.63,0,0,0-.18.45v9.58a.65.65,0,0,0,.39.6.67.67,0,0,0,.71-.14l8.75-8.75a.66.66,0,0,0,0-.92.68.68,0,0,0-.92,0l-7.64,7.66V35.52l5.09-5.09,14.86,14.86a.65.65,0,0,0,.7.14.66.66,0,0,0,.41-.6V35.25A.61.61,0,0,0,199.66,34.8Zm-1.09,8.48L184.81,29.52l3.87-3.88,9.89,9.88Z"/><polygon class="cls-1" points="198.56 2.21 198.56 9.95 188.68 19.84 184.81 15.97 198.56 2.21"/><path class="cls-1" d="M199.45.05a.63.63,0,0,0-.7.14L183.89,15.05,178.8,10V2.21l7.64,7.64a.65.65,0,1,0,.92-.91L178.61.19a.65.65,0,0,0-.71-.14.64.64,0,0,0-.39.6v9.57a.65.65,0,0,0,.18.46l5.7,5.7,0,0,0,0,4.76,4.76a.68.68,0,0,0,.46.19.62.62,0,0,0,.45-.19l10.53-10.53a.63.63,0,0,0,.2-.46V.65A.65.65,0,0,0,199.45.05Zm-.88,9.9-9.89,9.89L184.81,16,198.57,2.21Z"/><polygon class="cls-1" points="209.25 32.63 201.5 32.63 191.62 22.74 195.49 18.86 209.25 32.63"/><path class="cls-1" d="M196.41,18l5.08-5.09h7.76L201.6,20.5a.65.65,0,0,0,.92.92l8.75-8.75a.67.67,0,0,0,.14-.71.66.66,0,0,0-.6-.39h-9.58a.61.61,0,0,0-.45.18l-5.72,5.72,0,0,0,0-4.76,4.76a.63.63,0,0,0,0,.91l10.53,10.53a.59.59,0,0,0,.45.2h9.58a.68.68,0,0,0,.6-.41.65.65,0,0,0-.14-.7Zm5.08,14.67-9.87-9.88,3.87-3.87,13.76,13.75Z"/><path class="cls-1" d="M5.83,25.3a2.63,2.63,0,0,1-2.92,2.91A2.67,2.67,0,0,1,0,25.3V23H1.88V25.3c0,.82.21,1.4,1,1.4s1-.59,1-1.4V21.93H5.83ZM3.53,21a1,1,0,1,1-1-1A1,1,0,0,1,3.53,21Zm2.09,5.2V24.63h3.1V21.7H10.6v4.45ZM9.4,28.83a1,1,0,0,1-.82.42,1,1,0,1,1,0-2.07,1,1,0,0,1,.82.41Zm.52-1.24a1.07,1.07,0,0,1,.83-.41,1,1,0,0,1,0,2.07,1,1,0,0,1-.83-.42Zm5.19-6.44A3.42,3.42,0,0,1,18,24.63v1.52H10.39V24.63h5.69c0-.55,0-2.21-3.1-2.21V20.9l4-3.23.94,1.2Zm5.77,5c0,.72,0,2.55-3.44,2.55l-.52-1.52c2.07,0,2.07-.31,2.07-1V21.7h1.89Zm-.21,0V24.63h3.1V21.7h1.88v4.45Zm3.79-5.89a1.07,1.07,0,0,1-.83.41,1,1,0,1,1,0-2.07,1,1,0,0,1,.83.42ZM25,19a1,1,0,0,1,.83-.42,1,1,0,0,1,0,2.07,1.07,1.07,0,0,1-.83-.41Zm.48,7.13V24.63H28v-2.7h1.88v2.7h1V21.41h1.89v3.22h1V20.9h1.88v5.25Zm6.19-6.33a1,1,0,0,1-1.86-.62,1,1,0,0,1,1-1,1,1,0,0,1,.83.41ZM32.93,17a1,1,0,1,1-1-1A1,1,0,0,1,32.93,17Zm-.78,1.55a1,1,0,0,1,.83-.41,1,1,0,0,1,1,1,1,1,0,0,1-1.86.62ZM40,20.9c3.22,0,3.22,2,3.22,3.73v1.52h-7.7V24.63h2.58V20.9Zm1.34,3.73c0-1.76,0-2.21-1.34-2.21v2.21Zm1.67,1.52V24.63h2.59V18.91h1.88v7.24Zm4.26,0V24.63h2.58V18.91h1.88v7.24Zm7.83,0V24.63c0-1.76,0-3.73,3.22-3.73h1.9v5.25Zm2.29-6.7a1,1,0,0,1-.82.41,1,1,0,1,1,0-2.06,1,1,0,0,1,.82.41Zm.93,3c-1.33,0-1.34.45-1.34,2.21h1.34ZM58,18.21a1,1,0,0,1,.83-.41,1,1,0,1,1,0,2.06,1,1,0,0,1-.83-.41Zm2.1,7.94V24.63h3.1V21.7H65v4.45Zm3.78,2.68A1,1,0,0,1,62,28.21a1,1,0,0,1,1.86-.62Zm.52-1.24a1,1,0,0,1,1.86.62,1,1,0,0,1-1,1,1,1,0,0,1-.82-.42Zm.47-1.44V24.63H67.4V21.7h1.88v4.45Zm4.57-6.51a1,1,0,1,1-1-1A1,1,0,0,1,69.39,19.64Zm6,6.51c0,.72,0,2.55-3.44,2.55l-.52-1.52c2.07,0,2.07-.31,2.07-1H70.32V24.63c0-1.76,0-3.73,3.22-3.73h1.89Zm-1.89-3.73c-1.33,0-1.34.45-1.34,2.21h1.34Zm4.82,3.73c0,.72,0,2.55-2.82,2.55V27.18c.93,0,.93-.31.93-1V21.7h1.89Zm-.21,0V24.63h3.1V21.7h1.88v4.45Zm3.78-5.89a1.07,1.07,0,0,1-.83.41,1,1,0,0,1,0-2.07,1,1,0,0,1,.83.42ZM82.45,19a1,1,0,0,1,.82-.42,1,1,0,1,1-.82,1.66Zm5.18,2.13a3.42,3.42,0,0,1,2.86,3.48v1.52H82.92V24.63H88.6c0-.55,0-2.21-3.1-2.21V20.9l4-3.23.94,1.2Zm2.65,5V24.63h2.58V18.91h1.88v7.24Zm5.7,0-.21-1.52h4.65V18.91h1.89v7.24Zm.5-2v-5.2h1.88v5.2Zm6.86,2V18.91h1.88v7.24Zm9.2-3.73c-2.06,0-2.06,1.27-2.06,2.2h6.2V21.7h1.89v2.89a1.58,1.58,0,0,1-1.76,1.56h-8.23V24.62c0-.93,0-3.72,3.45-3.72Zm2.79-2.16a1,1,0,0,1-.82.41,1,1,0,1,1,0-2.07,1,1,0,0,1,.82.42Zm.52-1.24a1,1,0,0,1,.83-.42,1,1,0,0,1,0,2.07,1.07,1.07,0,0,1-.83-.41Zm3.75,7.13V18.91h1.88v7.24Zm6.15-5.25c3.22,0,3.22,2,3.22,3.73v1.52h-7.7V24.63h2.59V20.9Zm1.34,3.73c0-1.76,0-2.21-1.34-2.21v2.21ZM131,20.9c4,0,4,3.18,4,3.73v1.52h-5V24.63h3.1a1.9,1.9,0,0,0-2.06-2.2Zm6.33,0c5,0,5,3.18,5,3.73v1.52h-7.58V24.63h5.69c0-.55,0-2.2-3.1-2.2ZM140,18.83a1,1,0,1,1-1-1A1,1,0,0,1,140,18.83Zm2.2,7.32V24.63h2.59V18.91h1.88v7.24Zm5.5,0V18.91h1.88v7.24Zm9.2,0c0,.41,0,2.55-3.44,2.55l-.51-1.52c2.06,0,2.06-.62,2.06-1V24.64c0-1.59,0-3.74,3.23-3.74h1.89v5.25Zm1.34-3.74c-1.33,0-1.34.64-1.34,2.23h1.34Zm2.92,3.74V18.91H163v7.24Zm6.14-4.71a3.72,3.72,0,0,1,2.07-.54,3.62,3.62,0,0,1,3.94,3.73v1.52H162.78V24.63h2.59V18.91h1.88Zm4.13,3.19a2.07,2.07,0,1,0-4.13,0Zm-3.1-5.8a1,1,0,1,1,1,1A1,1,0,0,1,168.28,18.83Zm4.77,7.32V24.63h2.59V21.7h1.88v4.45Zm4.57-6.51a1,1,0,1,1-1-1A1,1,0,0,1,177.62,19.64Z"/></g></g></svg>